#!OML:ASF F:\VICON\USERDATA\INSTALL\Justin_Nancy\Justin_Nancy.ASF
:FULLY-SPECIFIED
:DEGREES
220
root 0.0332048 17.5805 -9.54712 2.27559 -1.48739 0.331743
lowerback 6.86665 -1.2913 -1.2889
upperback 0.328812 -1.71094 3.07102
thorax -3.37924 -0.810294 4.07422
lowerneck -15.0274 -4.72753 -9.504
upperneck 21.3033 -6.13868 7.98447
head 9.77607 -2.75839 3.57721
rclavicle -1.95803e-014 4.77083e-014
rhumerus -36.1507 -21.0623 -71.8267
rradius 23.3704
rwrist 13.3018
rhand -15.3041 12.0782
rfingers 7.12502
rthumb 10.8715 -17.6204
lclavicle -1.95803e-014 4.77083e-014
lhumerus -30.0779 1.09667 87.3637
lradius 31.2602
lwrist -9.41563
lhand -10.2157 27.0816
lfingers 7.12502
lthumb 15.776 56.4587
rfemur -19.3163 3.94937 24.1241
rtibia 28.2184
rfoot -7.19661 -3.7204
rtoes 5.83546
lfemur -7.06292 -2.30143 -20.8338
ltibia 59.2747
lfoot 7.48517 -8.76719
ltoes -4.03674
221
root 0.0194452 17.592 -9.36499 2.15569 -1.55223 0.364697
lowerback 6.81573 -1.21857 -1.27039
upperback 0.38972 -1.61539 3.02391
thorax -3.29694 -0.765353 4.00252
lowerneck -15.0536 -4.71049 -9.44034
upperneck 21.3612 -6.09323 7.82843
head 9.78971 -2.74836 3.51779
rclavicle -9.83984e-015 -4.21423e-014
rhumerus -35.9165 -21.1678 -71.8631
rradius 23.0325
rwrist 13.7157
rhand -15.2347 12.5946
rfingers 7.12502
rthumb 10.9384 -17.1004
lclavicle -9.83984e-015 -4.21423e-014
lhumerus -30.3463 1.2472 87.3991
lradius 31.4661
lwrist -8.90298
lhand -10.3997 27.2643
lfingers 7.12502
lthumb 15.5987 56.6553
rfemur -18.168 3.70274 24.2088
rtibia 27.7528
rfoot -7.28707 -3.56014
rtoes 3.44334
lfemur -8.47296 -1.90539 -20.7777
ltibia 60.4196
lfoot 6.0239 -9.37645
ltoes -5.41777
222
root -0.00193154 17.6215 -9.18176 2.13692 -1.95651 0.327163
lowerback 6.7471 -1.04461 -1.33672
upperback 0.415451 -1.3891 3.03065
thorax -3.2477 -0.652798 4.0238
lowerneck -15.2271 -4.71841 -9.54375
upperneck 21.5475 -6.05934 7.77378
head 9.8871 -2.74321 3.52115
rclavicle 4.47266e-015 2.14687e-014
rhumerus -35.716 -21.1935 -71.8988
rradius 22.8489
rwrist 13.9559
rhand -15.1218 12.9323
rfingers 7.12502
rthumb 11.0472 -16.757
lclavicle 4.47266e-015 2.14687e-014
lhumerus -30.6102 1.48391 87.4091
lradius 31.7989
lwrist -8.19199
lhand -10.2795 27.6401
lfingers 7.12502
lthumb 15.7145 57.0221
rfemur -17.2415 3.83384 24.3777
rtibia 27.36
rfoot -7.82417 -3.39658
rtoes 1.57805
lfemur -10.173 -1.11077 -20.6314
ltibia 61.3933
lfoot 6.72183 -7.54057
ltoes 0.525651
223
root -0.019528 17.6476 -9.00922 2.29204 -2.38034 0.160863
lowerback 6.6662 -0.805744 -1.1868
upperback 0.337073 -1.05953 2.98786
thorax -3.313 -0.489154 3.86332
lowerneck -15.0946 -4.77393 -9.52748
upperneck 21.599 -6.14338 7.71944
head 9.88642 -2.7896 3.48968
rclavicle 1.78906e-014 -1.43125e-014
rhumerus -35.5824 -21.1421 -72.1075
rradius 22.7372
rwrist 13.9328
rhand -15.0564 13.9814
rfingers 7.12502
rthumb 11.1104 -15.7045
lclavicle 1.78906e-014 -1.43125e-014
lhumerus -30.8811 1.46312 87.3711
lradius 32.1727
lwrist -7.52456
lhand -9.99802 28.4496
lfingers 7.12502
lthumb 15.9856 57.81
rfemur -16.6787 4.08295 24.6537
rtibia 27.0516
rfoot -8.62555 -3.28279
rtoes -1.25201
lfemur -11.8455 -0.233244 -20.3667
ltibia 62.1954
lfoot 1.52752 -12.0336
ltoes -17.9042
224
root -0.0290871 17.6488 -8.84683 2.40695 -2.70651 0.115491
lowerback 6.59684 -0.62224 -1.03751
upperback 0.293603 -0.806603 2.88497
thorax -3.34156 -0.365251 3.64723
lowerneck -14.8293 -4.77601 -9.51981
upperneck 21.4492 -6.17523 7.7683
head 9.78765 -2.80416 3.50257
rclavicle -8.94531e-015 -4.77083e-015
rhumerus -35.4145 -20.8121 -72.5441
rradius 22.8461
rwrist 13.7863
rhand -15.1914 14.28
rfingers 7.12502
rthumb 10.9802 -15.4129
lclavicle -8.94531e-015 -4.77083e-015
lhumerus -31.1254 1.65855 87.2617
lradius 32.256
lwrist -7.44787
lhand -10.2347 28.0585
lfingers 7.12502
lthumb 15.7577 57.437
rfemur -16.149 4.17946 24.7539
rtibia 26.8557
rfoot -9.14571 -3.19511
rtoes -2.69943
lfemur -13.0913 0.31375 -20.2722
ltibia 62.866
lfoot 3.28696 -8.4289
ltoes -7.04359
225
root -0.036592 17.6448 -8.6806 2.55279 -2.96522 0.111541
lowerback 6.3762 -0.454076 -0.902609
upperback 0.305587 -0.57695 2.79208
thorax -3.22373 -0.255202 3.44895
lowerneck -14.8445 -4.78685 -9.47466
upperneck 21.3978 -6.18553 7.72411
head 9.77039 -2.80935 3.47685
rclavicle 7.85199e-015 2.3059e-014
rhumerus -35.1082 -20.2814 -73.1292
rradius 23.1419
rwrist 13.1063
rhand -15.307 13.4774
rfingers 7.12502
rthumb 10.8686 -16.2214
lclavicle 7.85199e-015 2.3059e-014
lhumerus -31.3482 1.74318 87.1867
lradius 32.1588
lwrist -7.38068
lhand -10.7101 26.7962
lfingers 7.12502
lthumb 15.2997 56.2103
rfemur -15.6155 4.21774 24.7937
rtibia 26.7522
rfoot -9.39313 -3.22488
rtoes -2.0107
lfemur -14.3744 0.497057 -20.1665
ltibia 63.4674
lfoot 1.8853 -7.69869
ltoes -3.25437
226
root -0.0500606 17.6401 -8.5127 2.59795 -3.04886 0.0306537
lowerback 6.28574 -0.33293 -0.784949
upperback 0.302997 -0.408632 2.7569
thorax -3.18785 -0.173719 3.32941
lowerneck -14.7926 -4.76036 -9.51601
upperneck 21.303 -6.13244 7.71073
head 9.723 -2.79038 3.48565
rclavicle -1.39149e-015 4.45278e-014
rhumerus -34.777 -19.5619 -73.7529
rradius 23.4635
rwrist 12.1978
rhand -15.6262 13.5536
rfingers 7.12502
rthumb 10.5607 -16.1611
lclavicle -1.39149e-015 4.45278e-014
lhumerus -31.7692 1.84685 87.1206
lradius 32.3407
lwrist -7.15025
lhand -10.9118 25.7438
lfingers 7.12502
lthumb 15.1055 55.1726
rfemur -14.9891 4.22535 24.9577
rtibia 26.7281
rfoot -9.81796 -3.37855
rtoes -1.40688
lfemur -15.7334 0.687912 -19.9245
ltibia 63.9729
lfoot -0.126641 -7.67272
ltoes -3.33196
227
root -0.067751 17.6365 -8.345 2.51856 -3.10728 -0.256339
lowerback 6.39944 -0.227602 -0.486565
upperback 0.403586 -0.247893 2.7571
thorax -3.15897 -0.099167 3.14684
lowerneck -15.1286 -4.76543 -9.64144
upperneck 21.3682 -6.11506 7.85705
head 9.81682 -2.76875 3.55797
rclavicle 2.5842e-015 2.78299e-014
rhumerus -34.4387 -18.86 -74.3823
rradius 24.0333
rwrist 11.7149
rhand -15.845 15.8307
rfingers 7.12502
rthumb 10.3497 -13.8946
lclavicle 2.5842e-015 2.78299e-014
lhumerus -32.059 1.92092 87.0249
lradius 32.8403
lwrist -6.74847
lhand -10.7601 25.6376
lfingers 7.12502
lthumb 15.2516 55.0554
rfemur -14.2071 4.29354 25.3793
rtibia 26.6964
rfoot -10.4801 -3.57813
rtoes -0.156014
lfemur -16.9967 1.05004 -19.4691
ltibia 64.3502
lfoot -1.56207 -7.18838
ltoes -3.15438
228
root -0.0804523 17.6335 -8.17614 2.42662 -3.21518 -0.462175
lowerback 6.49149 -0.124724 -0.218133
upperback 0.564793 -0.0950084 2.72377
thorax -3.0532 -0.0291221 2.94617
lowerneck -15.6222 -4.80699 -9.5372
upperneck 21.451 -6.13195 7.75038
head 9.93415 -2.76812 3.49498
rclavicle 9.74045e-015 -2.70347e-014
rhumerus -33.9787 -18.2299 -75.0022
rradius 24.4923
rwrist 11.1808
rhand -15.7692 17.8179
rfingers 7.12502
rthumb 10.4228 -11.9038
lclavicle 9.74045e-015 -2.70347e-014
lhumerus -32.123 2.10583 86.8654
lradius 33.1377
lwrist -6.58436
lhand -10.7117 25.8109
lfingers 7.12502
lthumb 15.2983 55.2251
rfemur -13.3852 4.27195 25.6708
rtibia 26.6231
rfoot -11.4752 -3.60946
rtoes 4.60428
lfemur -18.2111 1.41076 -19.1738
ltibia 64.5295
lfoot -2.95692 -6.4362
ltoes -3.30777
229
root -0.0826104 17.6242 -8.00612 2.38626 -3.39564 -0.481315
lowerback 6.57118 0.00737203 -0.0234574
upperback 0.542264 0.0937589 2.63075
thorax -3.13055 0.0624552 2.72313
lowerneck -15.5104 -4.86177 -9.52287
upperneck 21.3901 -6.19344 7.64735
head 9.89378 -2.80897 3.44742
rclavicle 8.54774e-015 2.3059e-014
rhumerus -33.7581 -17.6394 -75.4469
rradius 24.801
rwrist 10.4893
rhand -15.7253 18.2288
rfingers 7.12502
rthumb 10.4651 -11.4907
lclavicle 8.54774e-015 2.3059e-014
lhumerus -32.402 2.14986 86.7745
lradius 33.0705
lwrist -6.61299
lhand -11.0765 25.4685
lfingers 7.12502
lthumb 14.9468 54.9092
rfemur -12.5949 4.04157 25.7218
rtibia 26.4987
rfoot -11.6496 -3.54863
rtoes 1.20757
lfemur -19.4272 1.75948 -19.1963
ltibia 64.558
lfoot -4.4188 -5.38471
ltoes -3.44152
230
root -0.0871997 17.6147 -7.8418 2.35101 -3.78313 -0.49295
lowerback 6.69457 0.186892 0.0883025
upperback 0.493037 0.341373 2.54785
thorax -3.26114 0.184664 2.55163
lowerneck -15.2423 -4.90228 -9.55048
upperneck 21.2647 -6.24106 7.56869
head 9.80207 -2.84766 3.41895
rclavicle -2.68359e-015 6.36111e-015
rhumerus -33.6396 -16.9726 -75.9329
rradius 25.3631
rwrist 9.98509
rhand -15.8374 17.4393
rfingers 7.12502
rthumb 10.357 -12.2857
lclavicle -2.68359e-015 6.36111e-015
lhumerus -32.8237 2.32282 86.6788
lradius 33.1402
lwrist -6.58599
lhand -10.9662 25.8646
lfingers 7.12502
lthumb 15.053 55.2974
rfemur -11.8467 4.01405 25.7918
rtibia 26.3303
rfoot -12.0573 -3.56952
rtoes -1.11979
lfemur -20.5894 2.23573 -19.2004
ltibia 64.4565
lfoot -5.88876 -4.4
ltoes -3.5572
231
root -0.0978656 17.6046 -7.68708 2.32235 -4.17547 -0.777604
lowerback 6.95021 0.382558 0.334332
upperback 0.535429 0.625002 2.57908
thorax -3.37074 0.32255 2.41783
lowerneck -15.4885 -4.90792 -9.49755
upperneck 21.3226 -6.20866 7.43294
head 9.85952 -2.8375 3.3637
rclavicle -7.35503e-015 -7.95139e-016
rhumerus -33.2556 -16.3583 -76.4413
rradius 26.0156
rwrist 9.84399
rhand -15.7085 16.1428
rfingers 7.12502
rthumb 10.4814 -13.5759
lclavicle -7.35503e-015 -7.95139e-016
lhumerus -33.1311 2.43926 86.6153
lradius 33.4479
lwrist -6.42195
lhand -10.55 26.0219
lfingers 7.12502
lthumb 15.4539 55.4241
rfemur -11.0171 4.31746 26.1746
rtibia 26.0772
rfoot -12.4908 -3.7485
rtoes -1.19384
lfemur -21.8289 2.70729 -18.8518
ltibia 64.2931
lfoot -7.12332 -3.61951
ltoes -4.22728
